<?xml version="1.0" encoding="UTF-8"?>
<svg id="Layer_2" data-name="Layer 2" xmlns="http://www.w3.org/2000/svg" viewBox="0 0 231.63 231.63">
  <defs>
    <style>
      .cls-1 {
        fill: #96a0ad;
      }

      .cls-1, .cls-2 {
        opacity: .2;
      }

      .cls-2 {
        fill: #fff;
      }

      .cls-3 {
        fill: none;
      }

      .cls-4 {
        fill: #ccc;
      }
    </style>
  </defs>
  <g id="Layer_1-2" data-name="Layer 1">
    <g>
      <path class="cls-3" d="M47.98,106.19c-.82-18.08,5.65-36.44,19.43-50.22,12.6-12.6,29.34-19.53,47.16-19.53s34.56,6.94,47.16,19.53c11.27,11.27,18.14,26.23,19.34,42.1,1.15,15.18-2.93,30.31-11.49,42.77l11.97,11.97c.96-.29,1.96-.45,2.99-.45,2.71,0,5.26,1.06,7.18,2.97l20.48,20.48c10.86-17.41,17.14-37.97,17.14-60C229.33,53.12,178.51,2.29,115.81,2.29,56.36,2.29,7.59,48,2.7,106.19H47.98Z"/>
      <path class="cls-3" d="M134.62,89.26v58.33c5.3-2.39,10.18-5.75,14.42-9.99,19.01-19.01,19.01-49.94,0-68.96-9.21-9.21-21.45-14.28-34.48-14.28s-25.27,5.07-34.48,14.28c-5.46,5.46-9.36,11.92-11.68,18.78h64.38c1.01,0,1.83,.82,1.83,1.83Z"/>
      <path class="cls-3" d="M163.8,173.09c0-1.03,.15-2.04,.45-2.99l-11.97-11.97c-9.45,6.5-20.27,10.38-31.65,11.4v59.7c26.03-1.09,49.79-10.94,68.42-26.68l-22.28-22.28c-1.92-1.92-2.97-4.46-2.97-7.18Z"/>
      <path class="cls-2" d="M5.76,137.57H57.46c-1.94-3.22-3.59-6.57-4.94-10.01H5.76c-.63,0-1.15-.51-1.15-1.15s.51-1.15,1.15-1.15H51.67c-1.75-5.01-2.89-10.19-3.42-15.42H2.45c-.1,1.97-.16,3.96-.16,5.96,0,7.88,.8,15.57,2.33,23,0-.03,0-.06,0-.09,0-.63,.51-1.15,1.15-1.15Z"/>
      <path class="cls-2" d="M114.56,169.81c-9.17,0-18.05-1.84-26.23-5.34H13.22c1.63,3.44,3.43,6.78,5.39,10.01H102.39c.63,0,1.15,.51,1.15,1.15s-.51,1.15-1.15,1.15H20.03c2.21,3.47,4.61,6.81,7.18,10.01H102.39c.63,0,1.15,.51,1.15,1.15s-.51,1.15-1.15,1.15H29.1c2.98,3.53,6.18,6.87,9.57,10.01h63.72c.63,0,1.15,.51,1.15,1.15s-.51,1.15-1.15,1.15H41.21c4.18,3.65,8.63,7,13.32,10.01h47.86c.63,0,1.15,.51,1.15,1.15s-.51,1.15-1.15,1.15H58.27c16.87,9.94,36.54,15.65,57.54,15.65,.39,0,.77-.01,1.16-.01v-59.55c-.8,.03-1.6,.04-2.41,.04Z"/>
      <path class="cls-2" d="M58.91,139.86H5.76c-.49,0-.91-.31-1.07-.74,.76,3.65,1.7,7.24,2.8,10.75h59.52c-3.07-3.13-5.78-6.48-8.11-10.01Z"/>
      <path class="cls-2" d="M69.38,152.17H8.24c1.15,3.41,2.47,6.75,3.93,10.01H83.52c-5.08-2.68-9.83-6.03-14.14-10.01Z"/>
      <path class="cls-1" d="M5.76,125.27c-.63,0-1.15,.51-1.15,1.15s.51,1.15,1.15,1.15H52.53c-.3-.76-.59-1.52-.85-2.29H5.76Z"/>
      <path class="cls-1" d="M5.76,139.86H58.91c-.5-.76-.98-1.52-1.44-2.29H5.76c-.63,0-1.15,.51-1.15,1.15,0,.03,0,.06,0,.09,.02,.1,.05,.21,.07,.31,.16,.43,.58,.74,1.07,.74Z"/>
      <path class="cls-1" d="M67.41,150.28c-.13-.13-.26-.27-.39-.4H7.49c.24,.77,.49,1.53,.74,2.29h61.15c-.67-.62-1.33-1.24-1.97-1.89Z"/>
      <path class="cls-1" d="M83.52,162.18H12.17c.34,.77,.7,1.53,1.06,2.29H88.34c-1.63-.7-3.24-1.46-4.81-2.29Z"/>
      <path class="cls-1" d="M103.54,175.63c0-.63-.51-1.15-1.15-1.15H18.61c.47,.77,.94,1.53,1.42,2.29H102.39c.63,0,1.15-.51,1.15-1.15Z"/>
      <path class="cls-1" d="M103.54,187.93c0-.63-.51-1.15-1.15-1.15H27.22c.62,.77,1.25,1.54,1.89,2.29H102.39c.63,0,1.15-.51,1.15-1.15Z"/>
      <path class="cls-1" d="M103.54,200.23c0-.63-.51-1.15-1.15-1.15H38.67c.84,.78,1.68,1.54,2.54,2.29h61.18c.63,0,1.15-.51,1.15-1.15Z"/>
      <path class="cls-1" d="M103.54,212.53c0-.63-.51-1.15-1.15-1.15H54.53c1.23,.79,2.48,1.55,3.74,2.29h44.12c.63,0,1.15-.51,1.15-1.15Z"/>
      <path class="cls-2" d="M165.7,139.97c8.67-12,12.83-26.78,11.71-41.63-1.13-15-7.62-29.13-18.28-39.79-11.9-11.9-27.73-18.46-44.56-18.46s-32.66,6.56-44.56,18.46c-24.57,24.57-24.57,64.55,0,89.13,11.9,11.9,27.73,18.46,44.56,18.46,13.35,0,26.09-4.11,36.85-11.89,.32-.23,.7-.35,1.07-.35,.47,0,.94,.18,1.3,.54l12.23,12.23,12.11-12.11-12.23-12.23c-.64-.64-.72-1.64-.19-2.37Zm-14.06,.22c-9.9,9.9-23.07,15.36-37.07,15.36s-27.17-5.45-37.07-15.36c-.38-.38-.76-.77-1.13-1.17-.09-.1-.19-.2-.28-.3-.3-.33-.6-.65-.89-.98-.07-.08-.13-.15-.2-.23-5.42-6.22-9.12-13.43-11.11-20.99-.05-.18-.09-.37-.14-.55-.07-.27-.13-.54-.2-.81-2.02-8.56-1.9-17.64,.58-26.4,.02-.07,.05-.14,.08-.2,2.37-8.25,6.79-16.02,13.28-22.5,9.9-9.9,23.07-15.36,37.07-15.36s27.17,5.45,37.07,15.36c20.44,20.44,20.44,53.7,0,74.14Z"/>
      <path class="cls-1" d="M184.53,156.02c-1.73,0-3.36,.67-4.58,1.9l-10.58,10.58c-1.22,1.22-1.9,2.85-1.9,4.58s.67,3.36,1.9,4.58l22.45,22.45c6.94-6.26,13.11-13.37,18.33-21.16l-21.04-21.04c-1.22-1.22-2.85-1.9-4.58-1.9Z"/>
      <path class="cls-1" d="M67.31,91.1c-1.31,5.18-1.75,10.46-1.36,15.64h48.35c1.01,0,1.83,.82,1.83,1.83s-.82,1.83-1.83,1.83h-47.93c.77,5.1,2.34,10.05,4.67,14.67h43.27c1.01,0,1.83,.82,1.83,1.83s-.82,1.83-1.83,1.83h-41.22c1.96,3.18,4.3,6.16,7.01,8.86,2.17,2.17,4.51,4.11,6.99,5.81h27.22c1.01,0,1.83,.82,1.83,1.83s-.82,1.83-1.83,1.83h-20.9c6.52,3.14,13.71,4.81,21.16,4.81h0c5.62,0,11.13-.95,16.39-2.83v-57.96h-63.65Z"/>
      <path class="cls-2" d="M114.3,110.4c1.01,0,1.83-.82,1.83-1.83s-.82-1.83-1.83-1.83h-48.54c.1,1.23,.24,2.45,.43,3.67h48.1Z"/>
      <path class="cls-2" d="M116.14,126.9c0-1.01-.82-1.83-1.83-1.83h-43.4c.63,1.24,1.31,2.47,2.05,3.67h41.34c1.01,0,1.83-.82,1.83-1.83Z"/>
      <path class="cls-2" d="M116.14,145.24c0-1.01-.82-1.83-1.83-1.83h-27.42c2,1.39,4.08,2.61,6.21,3.67h21.21c1.01,0,1.83-.82,1.83-1.83Z"/>
      <path class="cls-4" d="M116.97,169.77v59.55c1.23-.01,2.45-.04,3.67-.09v-59.7c-1.22,.11-2.44,.19-3.67,.24Z"/>
      <path class="cls-4" d="M47.98,106.19H2.7c-.1,1.22-.19,2.44-.25,3.67H48.25c-.12-1.22-.21-2.44-.27-3.67Z"/>
      <path class="cls-4" d="M48.25,109.85c.53,5.23,1.66,10.41,3.42,15.42,.27,.77,.56,1.53,.85,2.29,1.35,3.44,3,6.79,4.94,10.01,.46,.77,.94,1.54,1.44,2.29,2.33,3.53,5.04,6.89,8.11,10.01,.13,.13,.26,.27,.39,.4,.65,.65,1.3,1.27,1.97,1.89,4.31,3.98,9.06,7.33,14.14,10.01,1.57,.83,3.18,1.59,4.81,2.29,8.18,3.5,17.06,5.34,26.23,5.34,.8,0,1.61-.02,2.41-.04,1.23-.04,2.45-.13,3.67-.24,11.38-1.02,22.2-4.9,31.65-11.4l11.97,11.97c.48-1.56,1.34-2.99,2.52-4.18l10.58-10.58c1.19-1.19,2.62-2.04,4.18-2.52l-11.97-11.97c8.56-12.46,12.63-27.59,11.49-42.77-1.2-15.88-8.07-30.83-19.34-42.1-12.6-12.6-29.34-19.53-47.16-19.53s-34.56,6.94-47.16,19.53c-13.78,13.78-20.25,32.14-19.43,50.22,.06,1.22,.15,2.45,.27,3.67Zm117.76,56.82l-12.23-12.23c-.35-.35-.82-.54-1.3-.54-.37,0-.75,.11-1.07,.35-10.76,7.78-23.51,11.89-36.85,11.89-16.83,0-32.66-6.55-44.56-18.46-24.57-24.57-24.57-64.55,0-89.13,11.9-11.9,27.73-18.46,44.56-18.46s32.66,6.56,44.56,18.46c10.65,10.65,17.14,24.78,18.28,39.79,1.12,14.84-3.04,29.63-11.71,41.63-.53,.73-.45,1.73,.19,2.37l12.23,12.23-12.11,12.11Z"/>
      <path class="cls-4" d="M151.64,66.05c-9.9-9.9-23.07-15.36-37.07-15.36s-27.17,5.45-37.07,15.36c-6.48,6.48-10.91,14.26-13.28,22.5,.28-.68,.94-1.13,1.69-1.13h2.51c2.32-6.87,6.21-13.32,11.68-18.78,9.21-9.21,21.45-14.28,34.48-14.28s25.27,5.07,34.48,14.28c19.01,19.01,19.01,49.94,0,68.96-4.24,4.24-9.12,7.6-14.42,9.99v2.74c0,.76-.47,1.44-1.17,1.71-6.04,2.33-12.39,3.51-18.88,3.51h0c-14,0-27.17-5.45-37.07-15.35,9.9,9.9,23.07,15.36,37.07,15.36s27.17-5.45,37.07-15.36c20.44-20.44,20.44-53.7,0-74.14Z"/>
      <path class="cls-4" d="M63.9,116.52c1.99,7.57,5.69,14.77,11.11,20.99-5.33-6.13-9.08-13.33-11.11-20.99Z"/>
      <path class="cls-4" d="M63.76,115.97c-.07-.27-.13-.54-.2-.81,.06,.27,.13,.54,.2,.81Z"/>
      <path class="cls-4" d="M76.09,138.73c-.3-.32-.6-.65-.89-.98,.29,.33,.59,.66,.89,.98Z"/>
      <path class="cls-4" d="M76.37,139.03c.37,.39,.74,.78,1.13,1.17-.38-.38-.76-.77-1.13-1.17Z"/>
      <path class="cls-4" d="M184.53,152.36c-1.03,0-2.03,.15-2.99,.45-1.56,.48-2.99,1.34-4.18,2.52l-10.58,10.58c-1.19,1.19-2.04,2.62-2.52,4.18-.29,.96-.45,1.96-.45,2.99,0,2.71,1.06,5.26,2.97,7.18l22.28,22.28c.94-.79,1.86-1.59,2.77-2.41l-22.45-22.45c-1.22-1.22-1.9-2.85-1.9-4.58s.67-3.36,1.9-4.58l10.58-10.58c1.22-1.22,2.85-1.9,4.58-1.9s3.36,.67,4.58,1.9l21.04,21.04c.7-1.04,1.37-2.09,2.03-3.15l-20.48-20.48c-1.92-1.92-4.46-2.97-7.18-2.97Z"/>
      <path class="cls-4" d="M114.56,155.55h0c6.49,0,12.85-1.18,18.88-3.51,.71-.27,1.17-.95,1.17-1.71v-61.07c0-1.01-.82-1.83-1.83-1.83H65.91c-.75,0-1.4,.45-1.69,1.13-.03,.07-.06,.13-.08,.2-2.49,8.76-2.6,17.84-.58,26.4,.06,.27,.13,.54,.2,.81,.05,.18,.09,.37,.14,.55,2.03,7.66,5.78,14.86,11.11,20.99,.07,.08,.13,.15,.2,.23,.29,.33,.59,.66,.89,.98,.09,.1,.18,.2,.28,.3,.37,.39,.74,.78,1.13,1.17,9.9,9.9,23.06,15.35,37.07,15.35Zm16.39-6.49c-5.26,1.88-10.77,2.83-16.39,2.83h0c-7.45,0-14.64-1.66-21.16-4.81h-.31c-2.14-1.06-4.22-2.28-6.21-3.67h.2c-2.48-1.7-4.82-3.64-6.99-5.81-2.7-2.7-5.04-5.68-7.01-8.86h-.12c-.74-1.2-1.43-2.42-2.05-3.67h.13c-2.33-4.62-3.9-9.57-4.67-14.67h-.17c-.19-1.22-.33-2.44-.43-3.67h.18c-.39-5.18,.05-10.46,1.36-15.64h63.65v57.96Z"/>
      <g>
        <path class="cls-4" d="M145.66,8.55c-.2,0-.4-.03-.6-.08-3.78-1.03-7.65-1.86-11.53-2.48-1.25-.2-2.1-1.38-1.9-2.62,.2-1.25,1.38-2.1,2.62-1.9,4.03,.65,8.07,1.52,12.01,2.58,1.22,.33,1.94,1.59,1.61,2.81-.28,1.02-1.2,1.69-2.21,1.69Z"/>
        <path class="cls-4" d="M115.81,231.63c-30.93,0-60.02-12.05-81.89-33.92C12.05,175.83,0,146.75,0,115.81S12.05,55.79,33.92,33.92C55.79,12.05,84.88,0,115.81,0c1.27,0,2.29,1.03,2.29,2.29s-1.03,2.29-2.29,2.29c-29.71,0-57.64,11.57-78.65,32.58C16.15,58.17,4.58,86.1,4.58,115.81s11.57,57.64,32.58,78.65c21.01,21.01,48.94,32.58,78.65,32.58s57.64-11.57,78.65-32.58c21.01-21.01,32.58-48.94,32.58-78.65,0-20.84-5.8-41.16-16.77-58.76-10.67-17.12-25.78-31.03-43.7-40.24-1.13-.58-1.57-1.96-.99-3.09,.58-1.13,1.96-1.57,3.09-.99,18.65,9.58,34.38,24.07,45.49,41.89,11.42,18.33,17.46,39.48,17.46,61.18,0,30.93-12.05,60.02-33.92,81.89-21.87,21.87-50.96,33.92-81.89,33.92Z"/>
      </g>
      <path class="cls-4" d="M159.71,9.81c0,1.61-1.31,2.92-2.92,2.92s-2.92-1.31-2.92-2.92,1.31-2.92,2.92-2.92,2.92,1.31,2.92,2.92Z"/>
    </g>
  </g>
</svg>