<?xml version="1.0" encoding="UTF-8"?>
<svg id="Layer_2" data-name="Layer 2" xmlns="http://www.w3.org/2000/svg" viewBox="0 0 231.62 231.63">
  <defs>
    <style>
      .cls-1 {
        fill: #545b61;
      }

      .cls-1, .cls-2 {
        opacity: .2;
      }

      .cls-2 {
        fill: #fff;
      }

      .cls-3 {
        fill: none;
      }

      .cls-4 {
        fill: #ccc;
      }
    </style>
  </defs>
  <g id="Layer_1-2" data-name="Layer 1">
    <g>
      <rect class="cls-3" x="67.55" y="87.87" width="9.59" height="54.69"/>
      <polygon class="cls-3" points="77.66 84.2 85.02 62.49 76.73 46.74 67.96 46.74 59.67 62.49 67.03 84.2 77.66 84.2"/>
      <path class="cls-3" d="M115.81,2.29C53.12,2.29,2.29,53.12,2.29,115.81c0,38.45,19.12,72.43,48.37,92.97v-39.63c0-4.04,3.29-7.33,7.33-7.33h.96v-4.58h-2.6c-1.01,0-1.83-.82-1.83-1.83v-11c0-1.01,.82-1.83,1.83-1.83h7.53v-56.23l-7.94-23.41c-.16-.48-.12-1,.11-1.44l9.17-17.43c.32-.6,.94-.98,1.62-.98h10.99c.68,0,1.31,.38,1.62,.98l9.17,17.43c.23,.44,.28,.97,.11,1.44l-7.94,23.41v56.23h7.53c1.01,0,1.83,.82,1.83,1.83v11c0,1.01-.82,1.83-1.83,1.83h-2.6v4.58h.96c4.04,0,7.33,3.29,7.33,7.33v58.09c7.05,1.37,14.33,2.1,21.78,2.1,62.7,0,113.52-50.83,113.52-113.52S178.51,2.29,115.81,2.29Zm82.28,116.16l-14.67,1.75c-.32,.86-.67,1.71-1.05,2.54l9.14,11.61c.57,.73,.51,1.77-.14,2.43l-12.31,12.31c-.66,.66-1.7,.72-2.43,.14l-11.61-9.14c-.83,.38-1.68,.73-2.54,1.05l-1.75,14.67c-.11,.92-.89,1.62-1.82,1.62h-17.41c-.93,0-1.71-.69-1.82-1.62l-1.75-14.67c-.86-.32-1.71-.67-2.54-1.05l-11.61,9.14c-.73,.57-1.77,.51-2.43-.14l-12.31-12.31c-.66-.66-.72-1.7-.14-2.43l9.14-11.61c-.38-.83-.73-1.68-1.05-2.54l-14.67-1.75c-.92-.11-1.62-.89-1.62-1.82v-17.41c0-.93,.69-1.71,1.62-1.82l14.67-1.75c.32-.86,.67-1.71,1.05-2.54l-9.14-11.61c-.57-.73-.51-1.77,.14-2.43l12.31-12.31c.66-.66,1.7-.72,2.43-.14l11.61,9.14c.83-.38,1.68-.73,2.54-1.05l1.75-14.67c.11-.92,.89-1.62,1.82-1.62h17.41c.93,0,1.71,.69,1.82,1.62l1.75,14.67c.86,.32,1.71,.67,2.54,1.05l11.61-9.14c.73-.57,1.77-.51,2.43,.14l12.31,12.31c.66,.66,.72,1.7,.14,2.43l-9.14,11.61c.38,.83,.73,1.68,1.05,2.54l14.67,1.75c.92,.11,1.62,.89,1.62,1.82v17.41c0,.93-.69,1.71-1.62,1.82Z"/>
      <path class="cls-3" d="M150.21,88.63c-10.64,0-19.29,8.66-19.29,19.3s8.66,19.3,19.29,19.3,19.29-8.66,19.29-19.3-8.66-19.3-19.29-19.3Zm0,30.34c-6.1,0-11.05-4.95-11.05-11.05s4.95-11.05,11.05-11.05,11.05,4.95,11.05,11.05-4.95,11.05-11.05,11.05Z"/>
      <path class="cls-1" d="M86.7,165.48h-2.79c-1.01,0-1.83-.82-1.83-1.83v-8.25c0-1.01,.82-1.83,1.83-1.83h2.6v-7.33h-28.32v7.33h2.6c1.01,0,1.83,.82,1.83,1.83v8.25c0,1.01-.82,1.83-1.83,1.83h-2.79c-2.02,0-3.67,1.64-3.67,3.67v42.1c3.09,1.99,6.28,3.84,9.56,5.53v-41.39c0-1.01,.82-1.83,1.83-1.83s1.83,.82,1.83,1.83v43.19c3.12,1.47,6.32,2.8,9.59,3.99v-47.18c0-1.01,.82-1.83,1.83-1.83s1.83,.82,1.83,1.83v48.43c3.13,1.01,6.32,1.9,9.56,2.64v-57.32c0-2.02-1.64-3.67-3.67-3.67Z"/>
      <rect class="cls-2" x="67.55" y="87.87" width="9.59" height="54.69"/>
      <path class="cls-2" d="M65.72,173.56c-1.01,0-1.83,.82-1.83,1.83v41.39c1.21,.62,2.43,1.22,3.67,1.8v-43.19c0-1.01-.82-1.83-1.83-1.83Z"/>
      <path class="cls-2" d="M78.97,173.56c-1.01,0-1.83,.82-1.83,1.83v47.18c1.21,.44,2.44,.85,3.67,1.25v-48.43c0-1.01-.82-1.83-1.83-1.83Z"/>
      <path class="cls-1" d="M180.34,97.92c-.48-1.44-1.07-2.86-1.75-4.21-.32-.64-.24-1.4,.2-1.96l8.84-11.23-10.01-10.01-11.23,8.84c-.56,.44-1.32,.52-1.96,.2-1.35-.68-2.77-1.27-4.21-1.75-.67-.22-1.16-.82-1.24-1.52l-1.69-14.19h-14.15l-1.69,14.19c-.08,.71-.57,1.3-1.24,1.52-1.44,.48-2.86,1.07-4.21,1.75-.63,.32-1.4,.24-1.96-.2l-11.23-8.84-10.01,10.01,8.84,11.23c.44,.56,.52,1.32,.2,1.96-.68,1.35-1.27,2.77-1.75,4.21-.22,.67-.82,1.16-1.52,1.24l-14.19,1.69v14.15l14.19,1.69c.71,.08,1.3,.57,1.52,1.24,.48,1.44,1.07,2.86,1.75,4.21,.32,.64,.24,1.4-.2,1.96l-8.84,11.23,10.01,10.01,11.23-8.84c.56-.44,1.32-.52,1.96-.2,1.35,.68,2.77,1.27,4.21,1.75,.67,.22,1.16,.82,1.24,1.52l1.69,14.19h14.15l1.69-14.19c.08-.71,.57-1.3,1.24-1.52,1.44-.48,2.86-1.07,4.21-1.75,.64-.32,1.4-.24,1.96,.2l11.23,8.84,10.01-10.01-8.84-11.23c-.44-.56-.52-1.32-.2-1.96,.68-1.35,1.27-2.77,1.75-4.21,.22-.67,.82-1.16,1.52-1.24l14.19-1.69v-14.15l-14.19-1.69c-.71-.08-1.3-.57-1.52-1.24Zm-30.12,32.97c-12.66,0-22.96-10.3-22.96-22.96s10.3-22.96,22.96-22.96,22.96,10.3,22.96,22.96-10.3,22.96-22.96,22.96Z"/>
      <circle class="cls-1" cx="150.21" cy="107.93" r="11.05" transform="translate(-20.78 37.4) rotate(-13.28)"/>
      <polygon class="cls-2" points="67.96 46.74 76.73 46.74 85.02 62.49 77.66 84.2 67.03 84.2 59.67 62.49 67.96 46.74"/>
      <path class="cls-4" d="M86.7,161.81h-.96v-4.58h2.6c1.01,0,1.83-.82,1.83-1.83v-11c0-1.01-.82-1.83-1.83-1.83h-7.53v1.83c0,1.01-.82,1.83-1.83,1.83h7.53v7.33h-2.6c-1.01,0-1.83,.82-1.83,1.83v8.25c0,1.01,.82,1.83,1.83,1.83h2.79c2.02,0,3.67,1.64,3.67,3.67v57.32c1.21,.28,2.44,.53,3.67,.77v-58.09c0-4.04-3.29-7.33-7.33-7.33Z"/>
      <path class="cls-4" d="M57.99,165.48h2.79c1.01,0,1.83-.82,1.83-1.83v-8.25c0-1.01-.82-1.83-1.83-1.83h-2.6v-7.33h7.53c-1.01,0-1.83-.82-1.83-1.83v-1.83h-7.53c-1.01,0-1.83,.82-1.83,1.83v11c0,1.01,.82,1.83,1.83,1.83h2.6v4.58h-.96c-4.04,0-7.33,3.29-7.33,7.33v39.63c1.21,.85,2.43,1.67,3.67,2.47v-42.1c0-2.02,1.64-3.67,3.67-3.67Z"/>
      <path class="cls-4" d="M65.72,146.23h13.26c1.01,0,1.83-.82,1.83-1.83v-58.06l-.1,.29c-.25,.74-.95,1.24-1.74,1.24h-1.83v54.69h-9.59v-54.69h-1.83c-.79,0-1.48-.5-1.74-1.24l-.1-.29v58.06c0,1.01,.82,1.83,1.83,1.83Z"/>
      <path class="cls-4" d="M65.72,87.87h13.26c.79,0,1.48-.5,1.74-1.24l.1-.29,7.94-23.41c.16-.48,.12-1-.11-1.44l-9.17-17.43c-.32-.6-.94-.98-1.62-.98h-10.99c-.68,0-1.31,.38-1.62,.98l-9.17,17.43c-.23,.44-.28,.97-.11,1.44l7.94,23.41,.1,.29c.25,.74,.95,1.24,1.74,1.24Zm2.24-41.13h8.78l8.28,15.75-7.36,21.71h-10.63l-7.36-21.71,8.28-15.75Z"/>
      <path class="cls-4" d="M198.09,97.4l-14.67-1.75c-.32-.86-.67-1.71-1.05-2.54l9.14-11.61c.57-.73,.51-1.77-.14-2.43l-12.31-12.31c-.66-.66-1.7-.72-2.43-.14l-11.61,9.14c-.83-.38-1.68-.73-2.54-1.05l-1.75-14.67c-.11-.92-.89-1.62-1.82-1.62h-17.41c-.93,0-1.71,.69-1.82,1.62l-1.75,14.67c-.86,.32-1.71,.67-2.54,1.05l-11.61-9.14c-.73-.58-1.77-.51-2.43,.14l-12.31,12.31c-.66,.66-.72,1.7-.14,2.43l9.14,11.61c-.38,.83-.73,1.68-1.05,2.54l-14.67,1.75c-.92,.11-1.62,.89-1.62,1.82v17.41c0,.93,.69,1.71,1.62,1.82l14.67,1.75c.32,.86,.67,1.71,1.05,2.54l-9.14,11.61c-.57,.73-.51,1.77,.14,2.43l12.31,12.31c.66,.66,1.7,.72,2.43,.14l11.61-9.14c.83,.38,1.68,.73,2.54,1.05l1.75,14.67c.11,.92,.89,1.62,1.82,1.62h17.41c.93,0,1.71-.69,1.82-1.62l1.75-14.67c.86-.32,1.71-.67,2.54-1.05l11.61,9.14c.73,.58,1.77,.51,2.43-.14l12.31-12.31c.66-.66,.72-1.7,.14-2.43l-9.14-11.61c.38-.83,.73-1.68,1.05-2.54l14.67-1.75c.92-.11,1.62-.89,1.62-1.82v-17.41c0-.93-.69-1.71-1.62-1.82Zm-2.05,17.6l-14.19,1.69c-.71,.08-1.3,.57-1.52,1.24-.48,1.44-1.07,2.86-1.75,4.21-.32,.64-.24,1.4,.2,1.96l8.84,11.23-10.01,10.01-11.23-8.84c-.56-.44-1.32-.52-1.96-.2-1.35,.68-2.77,1.27-4.21,1.75-.67,.22-1.16,.82-1.24,1.52l-1.69,14.19h-14.15l-1.69-14.19c-.08-.71-.57-1.3-1.24-1.52-1.44-.48-2.86-1.07-4.21-1.75-.63-.32-1.4-.24-1.96,.2l-11.23,8.84-10.01-10.01,8.84-11.23c.44-.56,.52-1.32,.2-1.96-.68-1.35-1.27-2.77-1.75-4.21-.22-.67-.82-1.16-1.52-1.24l-14.19-1.69v-14.15l14.19-1.69c.71-.08,1.3-.57,1.52-1.24,.48-1.44,1.07-2.86,1.75-4.21,.32-.64,.24-1.4-.2-1.96l-8.84-11.23,10.01-10.01,11.23,8.84c.56,.44,1.32,.52,1.96,.2,1.35-.68,2.77-1.27,4.21-1.75,.67-.22,1.16-.82,1.24-1.52l1.69-14.19h14.15l1.69,14.19c.08,.71,.57,1.3,1.24,1.52,1.44,.48,2.86,1.07,4.21,1.75,.64,.32,1.4,.24,1.96-.2l11.23-8.84,10.01,10.01-8.84,11.23c-.44,.56-.52,1.32-.2,1.96,.68,1.35,1.27,2.77,1.75,4.21,.22,.67,.82,1.16,1.52,1.24l14.19,1.69v14.15Z"/>
      <path class="cls-4" d="M150.21,84.97c-12.66,0-22.96,10.3-22.96,22.96s10.3,22.96,22.96,22.96,22.96-10.3,22.96-22.96-10.3-22.96-22.96-22.96Zm0,42.26c-10.64,0-19.29-8.66-19.29-19.3s8.66-19.3,19.29-19.3,19.29,8.66,19.29,19.3-8.66,19.3-19.29,19.3Z"/>
      <g>
        <path class="cls-4" d="M145.66,8.55c-.2,0-.4-.03-.6-.08-3.78-1.03-7.66-1.86-11.53-2.48-1.25-.2-2.1-1.37-1.9-2.62,.2-1.25,1.38-2.1,2.62-1.9,4.03,.64,8.07,1.51,12.01,2.58,1.22,.33,1.94,1.59,1.61,2.81-.28,1.02-1.2,1.69-2.21,1.69Z"/>
        <path class="cls-4" d="M115.81,231.63c-30.93,0-60.02-12.05-81.89-33.92C12.05,175.83,0,146.75,0,115.81S12.05,55.79,33.92,33.92C55.79,12.05,84.88,0,115.81,0c1.27,0,2.29,1.03,2.29,2.29s-1.03,2.29-2.29,2.29c-29.71,0-57.64,11.57-78.65,32.58S4.58,86.1,4.58,115.81s11.57,57.64,32.58,78.65c21.01,21.01,48.94,32.58,78.65,32.58s57.64-11.57,78.65-32.58c21.01-21.01,32.58-48.94,32.58-78.65,0-20.84-5.8-41.16-16.77-58.76-10.67-17.12-25.78-31.03-43.7-40.24-1.13-.58-1.57-1.96-.99-3.09,.58-1.13,1.96-1.57,3.09-.99,18.65,9.58,34.38,24.07,45.49,41.89,11.42,18.33,17.46,39.48,17.46,61.18,0,30.93-12.05,60.02-33.92,81.89-21.87,21.87-50.96,33.92-81.89,33.92Z"/>
      </g>
      <path class="cls-4" d="M159.71,9.81c0,1.61-1.31,2.92-2.92,2.92s-2.92-1.31-2.92-2.92,1.31-2.92,2.92-2.92,2.92,1.31,2.92,2.92Z"/>
    </g>
  </g>
</svg>