<?xml version="1.0" encoding="UTF-8"?>
<svg id="Layer_2" data-name="Layer 2" xmlns="http://www.w3.org/2000/svg" viewBox="0 0 231.63 231.63">
  <defs>
    <style>
      .cls-1 {
        fill: #96a0ad;
      }

      .cls-1, .cls-2 {
        opacity: .2;
      }

      .cls-2 {
        fill: #fff;
      }

      .cls-3 {
        fill: none;
      }

      .cls-4 {
        fill: #ccc;
      }
    </style>
  </defs>
  <g id="Layer_1-2" data-name="Layer 1">
    <g>
      <path class="cls-3" d="M115.81,2.29C53.12,2.29,2.29,53.12,2.29,115.81c0,35.97,16.73,68.02,42.83,88.82v-18.23c0-1.01,.82-1.83,1.83-1.83h36.57c1.01,0,1.83,.82,1.83,1.83v4.86c0,6.05,4.92,10.97,10.97,10.97h38.97c6.05,0,10.97-4.92,10.97-10.97v-4.86c0-1.01,.82-1.83,1.83-1.83h36.57c1.01,0,1.83,.82,1.83,1.83v18.23c26.1-20.8,42.83-52.85,42.83-88.82C229.33,53.12,178.51,2.29,115.81,2.29Zm0,192.1l-19.42-28.96h13.46v-22.73h11.93v22.73h13.46l-19.42,28.96ZM179.79,62.96v66.17c0,3.89-3.17,7.06-7.06,7.06h-.04s0,0,0,0c0,0,0,0,0,0H58.95s0,0,0,0c0,0,0,0,0,0h-.04c-3.89,0-7.06-3.17-7.06-7.06V57.93c0-3.89,3.17-7.06,7.06-7.06h113.83c3.89,0,7.06,3.17,7.06,7.06v5.04Z"/>
      <polygon class="cls-1" points="121.78 142.71 109.85 142.71 109.85 165.43 96.39 165.43 115.81 194.4 135.23 165.43 121.78 165.43 121.78 142.71"/>
      <path class="cls-1" d="M149.94,188.24v3.02c0,8.07-6.57,14.64-14.64,14.64h-38.97c-8.07,0-14.64-6.57-14.64-14.64v-3.02H48.78v19.2c18.78,13.77,41.95,21.9,67.03,21.9s48.24-8.13,67.03-21.9v-19.2h-32.9Z"/>
      <path class="cls-2" d="M58.01,132.41l28.42-44.74-30.93-21.25v62.72c0,1.57,1.07,2.88,2.51,3.27Z"/>
      <path class="cls-2" d="M176.12,129.14v-62.68l-30.86,21.32,28.35,44.63c1.44-.39,2.51-1.71,2.51-3.27Z"/>
      <path class="cls-2" d="M123.49,102.82c-3.24,1.9-5.3,2.86-7.55,2.86s-4.49-1.05-7.49-2.87c-.03-.02-.06-.04-.09-.06l-18.91-12.99-27.18,42.78h107.06l-27.1-42.66-18.63,12.87s-.08,.05-.12,.07Z"/>
      <path class="cls-2" d="M90.22,85.83l20.18,13.86c2.82,1.71,4.27,2.32,5.54,2.32,1.41,0,3.01-.78,5.64-2.32l19.54-13.5c.14-.23,.33-.44,.57-.59,.2-.13,.42-.21,.65-.25l33.78-23.34v-4.08c0-1.87-1.52-3.39-3.39-3.39H58.9c-1.87,0-3.39,1.52-3.39,3.39v4.05l34.25,23.53c.06,.03,.12,.05,.17,.09,.11,.07,.21,.15,.3,.24Z"/>
      <path class="cls-4" d="M184.67,184.57h-36.57c-1.01,0-1.83,.82-1.83,1.83v4.86c0,6.05-4.92,10.97-10.97,10.97h-38.97c-6.05,0-10.97-4.92-10.97-10.97v-4.86c0-1.01-.82-1.83-1.83-1.83H46.95c-1.01,0-1.83,.82-1.83,1.83v18.23c1.2,.96,2.42,1.89,3.67,2.8v-19.2h32.9v3.02c0,8.07,6.57,14.64,14.64,14.64h38.97c8.07,0,14.64-6.57,14.64-14.64v-3.02h32.9v19.2c1.24-.91,2.46-1.84,3.67-2.8v-18.23c0-1.01-.82-1.83-1.83-1.83Z"/>
      <path class="cls-4" d="M57.4,133.38l.62-.97c-1.44-.39-2.51-1.71-2.51-3.27v-62.72l-2.87-1.97c-.5-.34-.79-.91-.79-1.51v66.2c0,3.89,3.17,7.06,7.06,7.06h.04c-.34,0-.67-.09-.98-.29-.85-.54-1.11-1.68-.56-2.53Z"/>
      <path class="cls-4" d="M171.13,135.35l-1.79-2.82H62.28l-1.79,2.82c-.35,.55-.94,.85-1.55,.85h113.73c-.61,0-1.2-.3-1.55-.85Z"/>
      <path class="cls-4" d="M179,64.47l-2.88,1.99v62.68c0,1.57-1.07,2.88-2.51,3.27l.62,.97c.54,.85,.29,1.99-.56,2.53-.3,.19-.64,.29-.98,.29h.04c3.89,0,7.06-3.17,7.06-7.06V62.96c0,.6-.3,1.17-.79,1.51Z"/>
      <path class="cls-4" d="M172.73,50.87H58.9c-3.89,0-7.06,3.17-7.06,7.06v5.01c0,.6,.3,1.17,.79,1.51l2.87,1.97,30.93,21.25,.96-1.52c.51-.8,1.53-1.06,2.36-.65l-34.25-23.53v-4.05c0-1.87,1.52-3.39,3.39-3.39h113.83c1.87,0,3.39,1.52,3.39,3.39v4.08l-33.78,23.34c.71-.13,1.47,.17,1.88,.82l1.03,1.63,30.86-21.32,2.88-1.99c.5-.34,.79-.91,.79-1.51v-5.04c0-3.89-3.17-7.06-7.06-7.06Z"/>
      <path class="cls-4" d="M115.94,102.01c-1.27,0-2.72-.61-5.54-2.32l-20.18-13.86c.61,.59,.74,1.55,.27,2.29l-1.03,1.63,18.91,12.99s.06,.04,.09,.06c3,1.82,5.18,2.87,7.49,2.87s4.31-.96,7.55-2.86c.04-.02,.08-.05,.12-.07l18.63-12.87-1.11-1.74c-.39-.61-.36-1.36,0-1.94l-19.54,13.5c-2.63,1.54-4.24,2.32-5.64,2.32Z"/>
      <path class="cls-4" d="M60.49,135.35l1.79-2.82,27.18-42.78,1.03-1.63c.47-.74,.34-1.7-.27-2.29-.09-.09-.19-.17-.3-.24-.06-.04-.12-.06-.17-.09-.83-.41-1.85-.15-2.36,.65l-.96,1.52-28.42,44.74-.62,.97c-.54,.85-.29,1.99,.56,2.53,.3,.19,.64,.29,.98,.29,0,0,0,0,0,0,0,0,0,0,0,0,.61,0,1.2-.3,1.55-.85Z"/>
      <path class="cls-4" d="M174.23,133.38l-.62-.97-28.35-44.63-1.03-1.63c-.41-.65-1.17-.95-1.88-.82-.22,.04-.44,.12-.65,.25-.24,.15-.43,.36-.57,.59-.35,.58-.38,1.33,0,1.94l1.11,1.74,27.1,42.66,1.79,2.82c.35,.55,.94,.85,1.55,.85,0,0,0,0,0,0,0,0,0,0,0,0,.34,0,.67-.09,.98-.29,.85-.54,1.11-1.68,.56-2.53Z"/>
      <g>
        <path class="cls-4" d="M145.66,8.55c-.2,0-.4-.03-.6-.08-3.78-1.03-7.66-1.86-11.53-2.48-1.25-.2-2.1-1.37-1.9-2.62,.2-1.25,1.38-2.1,2.62-1.9,4.03,.65,8.07,1.51,12.01,2.58,1.22,.33,1.94,1.59,1.61,2.81-.28,1.02-1.2,1.69-2.21,1.69Z"/>
        <path class="cls-4" d="M115.81,231.63c-30.93,0-60.02-12.05-81.89-33.92C12.05,175.83,0,146.75,0,115.81S12.05,55.79,33.92,33.92C55.79,12.05,84.88,0,115.81,0c1.27,0,2.29,1.03,2.29,2.29s-1.03,2.29-2.29,2.29c-29.71,0-57.64,11.57-78.65,32.58C16.15,58.17,4.58,86.1,4.58,115.81s11.57,57.64,32.58,78.65c21.01,21.01,48.94,32.58,78.65,32.58s57.64-11.57,78.65-32.58c21.01-21.01,32.58-48.94,32.58-78.65,0-20.84-5.8-41.16-16.77-58.76-10.67-17.12-25.78-31.03-43.7-40.24-1.13-.58-1.57-1.96-.99-3.09,.58-1.13,1.96-1.57,3.09-.99,18.65,9.58,34.38,24.07,45.49,41.89,11.42,18.33,17.46,39.48,17.46,61.18,0,30.93-12.05,60.02-33.92,81.89-21.87,21.87-50.96,33.92-81.89,33.92Z"/>
      </g>
      <circle class="cls-4" cx="156.8" cy="9.81" r="2.92"/>
    </g>
  </g>
</svg>