<?xml version="1.0" encoding="UTF-8"?>
<svg id="Layer_2" data-name="Layer 2" xmlns="http://www.w3.org/2000/svg" viewBox="0 0 231.63 231.62">
  <defs>
    <style>
      .cls-1 {
        fill: #545b61;
      }

      .cls-1, .cls-2 {
        opacity: .2;
      }

      .cls-2 {
        fill: #fff;
      }

      .cls-3 {
        fill: none;
      }

      .cls-4 {
        fill: #ccc;
      }
    </style>
  </defs>
  <g id="Layer_1-2" data-name="Layer 1">
    <g>
      <path class="cls-3" d="M94.94,62.13c.34-.34,.81-.54,1.3-.54s.95,.19,1.3,.54l37.72,37.72,62.55-62.55C177.13,15.72,148.04,2.29,115.81,2.29,53.12,2.29,2.29,53.12,2.29,115.81c0,11.78,1.8,23.15,5.13,33.83L94.94,62.13Z"/>
      <path class="cls-3" d="M211.82,176.41c11.09-17.54,17.52-38.32,17.52-60.6,0-20.55-5.46-39.82-15-56.44l-59.78,59.78,57.26,57.26Z"/>
      <path class="cls-2" d="M144.05,129.65s-.03,.02-.05,.04c-.04,.03-.08,.06-.12,.09-.07,.05-.14,.11-.21,.15-.02,.01-.04,.03-.06,.04l-17.9,9.55-17.9,9.55c-.27,.15-.57,.22-.86,.22-.47,0-.94-.18-1.3-.54-.57-.57-.7-1.43-.33-2.14-.45-14.48-12.35-26.12-26.94-26.12s-26.96,12.09-26.96,26.96,12.09,26.96,26.96,26.96c.63,0,1.15,.51,1.15,1.15s-.51,1.15-1.15,1.15c-16.13,0-29.25-13.12-29.25-29.25s13.12-29.25,29.25-29.25c14.59,0,26.72,10.74,28.9,24.72l7.59-14.24s0,0,0,0l9.55-17.9s.03-.04,.04-.06c.04-.07,.09-.14,.15-.21,.03-.04,.06-.08,.09-.11,.01-.02,.02-.03,.04-.05l7.91-7.91-36.42-36.42L8.72,153.53c15.55,44.15,57.62,75.8,107.1,75.8,39.07,0,73.53-19.74,93.95-49.79l-57.8-57.8-7.91,7.91Zm-5.24,64.92c0,.63-.51,1.15-1.15,1.15h-19.4c-.63,0-1.15-.51-1.15-1.15s.51-1.15,1.15-1.15h18.26v-35.75h-47.05v19.16l15.61,25.04h-32.6l14.7-24.64v-20.7c0-.63,.51-1.15,1.15-1.15h49.34c.63,0,1.15,.51,1.15,1.15v38.04Zm33.03-25.55c.45-.45,1.17-.45,1.62,0,.45,.45,.45,1.17,0,1.62l-9.44,9.44,9.44,9.44c.45,.45,.45,1.17,0,1.62-.22,.22-.52,.34-.81,.34s-.59-.11-.81-.34l-9.44-9.44-9.46,9.46c-.22,.22-.52,.34-.81,.34s-.59-.11-.81-.34c-.45-.45-.45-1.17,0-1.62l9.46-9.46-9.44-9.44c-.45-.45-.45-1.17,0-1.62,.45-.45,1.17-.45,1.62,0l9.44,9.44,9.44-9.44Z"/>
      <path class="cls-1" d="M107.28,142.92c-2.18-13.99-14.31-24.72-28.9-24.72-16.13,0-29.25,13.12-29.25,29.25s13.12,29.25,29.25,29.25c.63,0,1.15-.51,1.15-1.15s-.51-1.15-1.15-1.15c-14.86,0-26.96-12.09-26.96-26.96s12.09-26.96,26.96-26.96,26.49,11.64,26.94,26.12c0,0,0-.01,0-.02l1.95-3.66Z"/>
      <path class="cls-1" d="M137.67,155.39h-49.34c-.63,0-1.15,.51-1.15,1.15v20.7l1.24-2.08,1.05,1.69v-19.16h47.05v35.75h-18.26c-.63,0-1.15,.51-1.15,1.15s.51,1.15,1.15,1.15h19.4c.63,0,1.15-.51,1.15-1.15v-38.04c0-.63-.51-1.15-1.15-1.15Z"/>
      <path class="cls-1" d="M128.63,111.64l14.12,14.12L212.39,56.13c-3.56-5.74-7.61-11.14-12.1-16.14l-71.66,71.66Z"/>
      <polygon class="cls-2" points="139.71 127.9 126.49 114.69 118.75 129.21 125.18 135.65 139.71 127.9"/>
      <polygon class="cls-1" points="116.94 132.59 111.4 143 121.8 137.45 116.94 132.59"/>
      <polygon class="cls-1" points="87.18 177.24 72.48 201.88 105.08 201.88 89.47 176.84 88.42 175.16 87.18 177.24"/>
      <path class="cls-1" d="M173.46,170.64c.45-.45,.45-1.17,0-1.62-.45-.45-1.17-.45-1.62,0l-9.44,9.44,1.62,1.62,9.44-9.44Z"/>
      <path class="cls-1" d="M151.31,189.55c-.45,.45-.45,1.17,0,1.62,.22,.22,.52,.34,.81,.34s.59-.11,.81-.34l9.46-9.46-1.62-1.62-9.46,9.46Z"/>
      <path class="cls-1" d="M151.33,169.02c-.45,.45-.45,1.17,0,1.62l9.44,9.44,1.62,1.62,9.44,9.44c.22,.22,.52,.34,.81,.34s.59-.11,.81-.34c.45-.45,.45-1.17,0-1.62l-9.44-9.44-1.62-1.62-9.44-9.44c-.45-.45-1.17-.45-1.62,0Z"/>
      <path class="cls-4" d="M151.96,121.74l57.8,57.8c.7-1.03,1.38-2.08,2.05-3.13l-57.26-57.26-2.59,2.59Z"/>
      <path class="cls-4" d="M132.65,102.44l2.59-2.59-37.72-37.72c-.34-.34-.81-.54-1.3-.54s-.95,.19-1.3,.54L7.42,149.64c.41,1.31,.84,2.6,1.3,3.89L96.23,66.02l36.42,36.42Z"/>
      <path class="cls-4" d="M143.88,129.79c-.07,.05-.14,.1-.21,.15,.07-.04,.14-.09,.21-.15Z"/>
      <path class="cls-4" d="M124.46,110.72c.04-.08,.09-.15,.15-.21-.05,.07-.1,.14-.15,.21Z"/>
      <path class="cls-4" d="M132.65,102.44l-7.91,7.91s-.03,.03-.04,.05c.28-.3,.65-.5,1.07-.56,.57-.09,1.16,.11,1.57,.52l16.71,16.71c.41,.41,.6,.99,.52,1.57-.06,.41-.27,.79-.56,1.07,.02-.01,.03-.02,.05-.04l7.91-7.91,2.59-2.59,59.78-59.78c-.63-1.09-1.28-2.17-1.94-3.24l-69.64,69.64-14.12-14.12L200.29,39.99c-.82-.91-1.65-1.81-2.49-2.69l-62.55,62.55-2.59,2.59Z"/>
      <path class="cls-4" d="M124.61,110.51c-.05,.07-.1,.14-.15,.21-.01,.02-.03,.04-.04,.06l-9.54,17.9c.27-.51,.77-.86,1.35-.95,.57-.09,1.16,.11,1.57,.52l.96,.96,7.74-14.52,13.22,13.22-14.52,7.74,.96,.96c.41,.41,.6,.99,.52,1.57-.09,.57-.44,1.07-.95,1.35l17.9-9.55s.04-.03,.06-.04c.08-.04,.15-.09,.21-.15,.04-.03,.08-.06,.12-.09,.3-.28,.5-.65,.56-1.07,.09-.57-.11-1.16-.52-1.57l-16.71-16.71c-.41-.41-.99-.6-1.57-.52-.41,.06-.79,.27-1.07,.56-.03,.04-.06,.07-.09,.11Z"/>
      <path class="cls-4" d="M126.66,138.17c.09-.57-.11-1.16-.52-1.57l-.96-.96-6.44-6.44-.96-.96c-.41-.41-.99-.6-1.57-.52-.57,.09-1.07,.44-1.35,.95,0,0,0,0,0,0l-7.59,14.24-1.95,3.66s0,.01,0,.02c-.37,.71-.24,1.57,.33,2.14,.35,.35,.82,.54,1.3,.54,.29,0,.59-.07,.86-.22l17.9-9.55c.51-.27,.87-.77,.95-1.35Zm-15.27,4.83l5.55-10.41,4.86,4.86-10.41,5.55Z"/>
      <g>
        <path class="cls-4" d="M145.66,8.55c-.2,0-.4-.03-.6-.08-3.78-1.03-7.65-1.86-11.53-2.48-1.25-.2-2.1-1.38-1.9-2.62,.2-1.25,1.38-2.1,2.62-1.9,4.03,.65,8.07,1.51,12.01,2.58,1.22,.33,1.94,1.59,1.61,2.81-.28,1.02-1.2,1.69-2.21,1.69Z"/>
        <path class="cls-4" d="M115.81,231.62c-30.93,0-60.02-12.05-81.89-33.92C12.05,175.83,0,146.75,0,115.81S12.05,55.79,33.92,33.92C55.79,12.05,84.88,0,115.81,0c1.27,0,2.29,1.03,2.29,2.29s-1.03,2.29-2.29,2.29c-29.71,0-57.64,11.57-78.65,32.58C16.15,58.17,4.58,86.1,4.58,115.81s11.57,57.64,32.58,78.65c21.01,21.01,48.94,32.58,78.65,32.58s57.64-11.57,78.65-32.58c21.01-21.01,32.58-48.94,32.58-78.65,0-20.84-5.8-41.16-16.77-58.76-10.67-17.12-25.78-31.03-43.7-40.24-1.13-.58-1.57-1.96-.99-3.09,.58-1.13,1.96-1.57,3.09-.99,18.65,9.58,34.38,24.07,45.49,41.89,11.42,18.33,17.46,39.48,17.46,61.18,0,30.93-12.05,60.02-33.92,81.89-21.87,21.87-50.96,33.92-81.89,33.92Z"/>
      </g>
      <path class="cls-4" d="M159.71,9.81c0,1.61-1.31,2.92-2.92,2.92s-2.92-1.31-2.92-2.92,1.31-2.92,2.92-2.92,2.92,1.31,2.92,2.92Z"/>
    </g>
  </g>
</svg>